<svg width="66" height="46" viewBox="0 0 66 46" fill="none" xmlns="http://www.w3.org/2000/svg">
<path d="M59.4496 4.56545C55.2006 1.62876 49.6062 0 43.6223 0C37.6384 0 32.044 1.62876 27.7951 4.56545C24.5021 6.86052 22.3423 9.77253 21.5633 12.9067C21.4925 13.2275 21.4217 13.5483 21.3863 13.8691C21.3509 14.1899 21.3154 14.5107 21.28 14.8315C21.2446 15.0783 21.2446 15.3498 21.2446 15.5966V17.7189V18.6813V19.6438V31.2178H37.8509H39.2318H40.6127C40.6481 30.9464 40.6481 30.6996 40.6481 30.4281V28.3305H39.2672H25.3873V19.6191V17.7189V15.6212C25.3873 15.3498 25.3873 15.103 25.4227 14.8315C25.4581 14.5107 25.4936 14.1899 25.5644 13.8691C25.6352 13.5483 25.706 13.2275 25.8122 12.9067C26.5558 10.4882 28.3262 8.31652 30.7339 6.61373C34.0268 4.31867 38.5944 2.88734 43.6223 2.88734C53.6781 2.88734 61.8573 8.58798 61.8573 15.5966C61.8573 19.1009 59.8036 22.2843 56.5107 24.5794C54.0676 26.2822 50.9517 27.4914 47.4818 28.0097V28.2811V30.4034C47.4818 30.6009 47.4818 30.7736 47.4818 30.971C51.9785 30.4281 56.1566 28.9228 59.4496 26.6277C63.6631 23.691 66 19.7672 66 15.5966C66 11.426 63.6631 7.50215 59.4496 4.56545Z" fill="#F7654A"/>
<path d="M25.3873 17.6942H26.7682H28.1491H40.6481V26.4056V27.368V28.3305V30.4281C40.6481 30.6996 40.6481 30.9464 40.6127 31.2178C40.5773 31.5386 40.5418 31.8595 40.471 32.1803C40.4002 32.5011 40.3294 32.8219 40.2232 33.1427C39.4796 35.5612 37.7092 37.7329 35.3015 39.4356C32.0086 41.7307 27.441 43.162 22.4131 43.162C12.3573 43.162 4.17811 37.4614 4.17811 30.4528C4.17811 26.9485 6.23176 23.765 9.52468 21.47C11.9678 19.7672 15.0837 18.558 18.5536 18.0397V15.6459C18.5536 15.4485 18.5536 15.2758 18.5536 15.0783C14.0569 15.6213 9.87876 17.1266 6.58584 19.4217C2.33691 22.309 0 26.2329 0 30.4035C0 34.5741 2.33691 38.4732 6.55043 41.4346C10.7639 44.3713 16.3938 46 22.3777 46C28.3616 46 33.956 44.3713 38.2049 41.4346C42.1706 38.6706 44.4721 35.0429 44.72 31.1685C44.72 31.0451 44.72 30.9217 44.7554 30.7983C44.7554 30.7243 44.7554 30.6749 44.7554 30.6009C44.7554 30.5268 44.7554 30.4775 44.7554 30.4035V28.2811V14.8069H28.1491H26.7682H25.3873C25.3519 15.0783 25.3519 15.3251 25.3519 15.5966L25.3873 17.6942Z" fill="#F7654A"/>
</svg>